<svg xmlns="http://www.w3.org/2000/svg" viewBox="0 0 1200 800" role="img" aria-labelledby="title desc">
  <title id="title">Mechanical keyboard illustration</title>
  <desc id="desc">Stylized mechanical keyboard graphic for blog article cover images.</desc>
  <defs>
    <linearGradient id="bg" x1="0" x2="1" y1="0" y2="1">
      <stop offset="0%" stop-color="#0f172a"/>
      <stop offset="100%" stop-color="#1f2937"/>
    </linearGradient>
    <linearGradient id="edge" x1="0" x2="1" y1="0" y2="0">
      <stop offset="0%" stop-color="#38bdf8"/>
      <stop offset="100%" stop-color="#8b5cf6"/>
    </linearGradient>
    <filter id="shadow" x="-20%" y="-20%" width="140%" height="140%">
      <feDropShadow dx="0" dy="18" stdDeviation="18" flood-color="#020617" flood-opacity="0.45"/>
    </filter>
  </defs>
  <rect width="1200" height="800" fill="url(#bg)"/>
  <g filter="url(#shadow)">
    <rect x="110" y="230" width="980" height="330" rx="36" fill="#111827"/>
    <rect x="140" y="260" width="920" height="270" rx="26" fill="#0b1220" stroke="url(#edge)" stroke-width="4"/>
    <g fill="#e5e7eb">
      <rect x="180" y="295" width="72" height="52" rx="10"/>
      <rect x="268" y="295" width="72" height="52" rx="10"/>
      <rect x="356" y="295" width="72" height="52" rx="10"/>
      <rect x="444" y="295" width="72" height="52" rx="10"/>
      <rect x="532" y="295" width="72" height="52" rx="10"/>
      <rect x="620" y="295" width="72" height="52" rx="10"/>
      <rect x="708" y="295" width="72" height="52" rx="10"/>
      <rect x="796" y="295" width="72" height="52" rx="10"/>
      <rect x="884" y="295" width="72" height="52" rx="10"/>
      <rect x="972" y="295" width="72" height="52" rx="10"/>
      <rect x="210" y="365" width="72" height="52" rx="10"/>
      <rect x="298" y="365" width="72" height="52" rx="10"/>
      <rect x="386" y="365" width="72" height="52" rx="10"/>
      <rect x="474" y="365" width="72" height="52" rx="10"/>
      <rect x="562" y="365" width="72" height="52" rx="10"/>
      <rect x="650" y="365" width="72" height="52" rx="10"/>
      <rect x="738" y="365" width="72" height="52" rx="10"/>
      <rect x="826" y="365" width="72" height="52" rx="10"/>
      <rect x="914" y="365" width="72" height="52" rx="10"/>
      <rect x="180" y="435" width="130" height="52" rx="10"/>
      <rect x="330" y="435" width="72" height="52" rx="10"/>
      <rect x="418" y="435" width="72" height="52" rx="10"/>
      <rect x="506" y="435" width="72" height="52" rx="10"/>
      <rect x="594" y="435" width="72" height="52" rx="10"/>
      <rect x="682" y="435" width="72" height="52" rx="10"/>
      <rect x="770" y="435" width="72" height="52" rx="10"/>
      <rect x="858" y="435" width="72" height="52" rx="10"/>
      <rect x="946" y="435" width="72" height="52" rx="10"/>
    </g>
  </g>
</svg>
